# Made in Blockbench 4.1.4
mtllib wearable_mekatab.mtl

o Belt 1
v -0.24241747852752243 1 0.13258252147247762
v -0.24241747852752243 1.0625 0.13258252147247762
v -0.24911165235168165 1 0.1258883476483184
v -0.24911165235168165 1.0625 0.1258883476483184
v -0.24241747852752243 1 -0.13258252147247768
v -0.24241747852752243 1.0625 -0.13258252147247768
v -0.24911165235168165 1 -0.12588834764831847
v -0.24911165235168165 1.0625 -0.12588834764831847
v -0.5075825214724778 1 -0.13258252147247768
v -0.5075825214724778 1.0625 -0.13258252147247768
v -0.5008883476483186 1 -0.12588834764831847
v -0.5008883476483186 1.0625 -0.12588834764831847
v -0.5075825214724777 1 0.13258252147247765
v -0.5075825214724777 1.0625 0.13258252147247765
v -0.5008883476483186 1 0.12588834764831844
v -0.5008883476483186 1.0625 0.12588834764831844
vt 0.3125 0.90625
vt 0.1875 0.90625
vt 0.1875 0.9375
vt 0.3125 0.9375
vt 0.3125 0.9375
vt 0.4375 0.9375
vt 0.4375 0.90625
vt 0.3125 0.90625
vt 0.09375 0.995265625
vt 0.004734375000000013 0.90625
vt 0 0.90625
vt 0.09375 1
vt 0.09375 0.8125
vt 0 0.90625
vt 0.004734375000000013 0.90625
vt 0.09375 0.817234375
vt 0.3125 0.9375
vt 0.1875 0.9375
vt 0.1875 0.96875
vt 0.3125 0.96875
vt 0.3125 0.96875
vt 0.4375 0.96875
vt 0.4375 0.9375
vt 0.3125 0.9375
vt 0.004734375000000013 0.90625
vt 0.09375 0.817234375
vt 0.09375 0.8125
vt 0 0.90625
vt 0 0.90625
vt 0.09375 1
vt 0.09375 0.995265625
vt 0.004734375000000013 0.90625
vt 0.3125 0.96875
vt 0.1875 0.96875
vt 0.1875 1
vt 0.3125 1
vt 0.3125 1
vt 0.4375 1
vt 0.4375 0.96875
vt 0.3125 0.96875
vt 0.09375 0.817234375
vt 0.182765625 0.90625
vt 0.1875 0.90625
vt 0.09375 0.8125
vt 0.09375 1
vt 0.1875 0.90625
vt 0.182765625 0.90625
vt 0.09375 0.995265625
vt 0.3125 0.875
vt 0.1875 0.875
vt 0.1875 0.90625
vt 0.3125 0.90625
vt 0.3125 0.90625
vt 0.4375 0.90625
vt 0.4375 0.875
vt 0.3125 0.875
vt 0.182765625 0.90625
vt 0.09375 0.995265625
vt 0.09375 1
vt 0.1875 0.90625
vt 0.1875 0.90625
vt 0.09375 0.8125
vt 0.09375 0.817234375
vt 0.182765625 0.90625
vn 1 0 0
vn -1 0 0
vn 0 -1 0
vn 0 1 0
vn 1.1102230246251565e-16 0 -1
vn -1.1102230246251565e-16 0 1
vn 0 -1 0
vn 0 1 0
vn -1 0 0
vn 1 0 -1.1102230246251568e-16
vn 0 -1 0
vn 0 1 0
vn 1.1102230246251565e-16 0 1
vn -1.1102230246251565e-16 0 -1
vn 0 -1 0
vn 0 1 0
usemtl m_4
f 1/1/1 5/2/1 6/3/1 2/4/1
f 4/5/2 8/6/2 7/7/2 3/8/2
f 3/9/3 7/10/3 5/11/3 1/12/3
f 2/13/4 6/14/4 8/15/4 4/16/4
f 5/17/5 9/18/5 10/19/5 6/20/5
f 8/21/6 12/22/6 11/23/6 7/24/6
f 7/25/7 11/26/7 9/27/7 5/28/7
f 6/29/8 10/30/8 12/31/8 8/32/8
f 9/33/9 13/34/9 14/35/9 10/36/9
f 12/37/10 16/38/10 15/39/10 11/40/10
f 11/41/11 15/42/11 13/43/11 9/44/11
f 10/45/12 14/46/12 16/47/12 12/48/12
f 13/49/13 1/50/13 2/51/13 14/52/13
f 16/53/14 4/54/14 3/55/14 15/56/14
f 15/57/15 3/58/15 1/59/15 13/60/15
f 14/61/16 2/62/16 4/63/16 16/64/16
o Belt 2
v -0.24241747852752243 0.8125 0.13258252147247762
v -0.24241747852752243 0.875 0.13258252147247762
v -0.24911165235168165 0.8125 0.1258883476483184
v -0.24911165235168165 0.875 0.1258883476483184
v -0.24241747852752243 0.8125 -0.13258252147247768
v -0.24241747852752243 0.875 -0.13258252147247768
v -0.24911165235168165 0.8125 -0.12588834764831847
v -0.24911165235168165 0.875 -0.12588834764831847
v -0.5075825214724778 0.8125 -0.13258252147247768
v -0.5075825214724778 0.875 -0.13258252147247768
v -0.5008883476483186 0.8125 -0.12588834764831847
v -0.5008883476483186 0.875 -0.12588834764831847
v -0.5075825214724777 0.8125 0.13258252147247765
v -0.5075825214724777 0.875 0.13258252147247765
v -0.5008883476483186 0.8125 0.12588834764831844
v -0.5008883476483186 0.875 0.12588834764831844
vt 0.3125 0.90625
vt 0.1875 0.90625
vt 0.1875 0.9375
vt 0.3125 0.9375
vt 0.3125 0.9375
vt 0.4375 0.9375
vt 0.4375 0.90625
vt 0.3125 0.90625
vt 0.09375 0.995265625
vt 0.004734375000000013 0.90625
vt 0 0.90625
vt 0.09375 1
vt 0.09375 0.8125
vt 0 0.90625
vt 0.004734375000000013 0.90625
vt 0.09375 0.817234375
vt 0.3125 0.9375
vt 0.1875 0.9375
vt 0.1875 0.96875
vt 0.3125 0.96875
vt 0.3125 0.96875
vt 0.4375 0.96875
vt 0.4375 0.9375
vt 0.3125 0.9375
vt 0.004734375000000013 0.90625
vt 0.09375 0.817234375
vt 0.09375 0.8125
vt 0 0.90625
vt 0 0.90625
vt 0.09375 1
vt 0.09375 0.995265625
vt 0.004734375000000013 0.90625
vt 0.3125 0.96875
vt 0.1875 0.96875
vt 0.1875 1
vt 0.3125 1
vt 0.3125 1
vt 0.4375 1
vt 0.4375 0.96875
vt 0.3125 0.96875
vt 0.09375 0.817234375
vt 0.182765625 0.90625
vt 0.1875 0.90625
vt 0.09375 0.8125
vt 0.09375 1
vt 0.1875 0.90625
vt 0.182765625 0.90625
vt 0.09375 0.995265625
vt 0.3125 0.875
vt 0.1875 0.875
vt 0.1875 0.90625
vt 0.3125 0.90625
vt 0.3125 0.90625
vt 0.4375 0.90625
vt 0.4375 0.875
vt 0.3125 0.875
vt 0.182765625 0.90625
vt 0.09375 0.995265625
vt 0.09375 1
vt 0.1875 0.90625
vt 0.1875 0.90625
vt 0.09375 0.8125
vt 0.09375 0.817234375
vt 0.182765625 0.90625
vn 1 0 0
vn -1 0 0
vn 0 -1 0
vn 0 1 0
vn 1.1102230246251565e-16 0 -1
vn -1.1102230246251565e-16 0 1
vn 0 -1 0
vn 0 1 0
vn -1 0 0
vn 1 0 -1.1102230246251568e-16
vn 0 -1 0
vn 0 1 0
vn 1.1102230246251565e-16 0 1
vn -1.1102230246251565e-16 0 -1
vn 0 -1 0
vn 0 1 0
usemtl m_4
f 17/65/17 21/66/17 22/67/17 18/68/17
f 20/69/18 24/70/18 23/71/18 19/72/18
f 19/73/19 23/74/19 21/75/19 17/76/19
f 18/77/20 22/78/20 24/79/20 20/80/20
f 21/81/21 25/82/21 26/83/21 22/84/21
f 24/85/22 28/86/22 27/87/22 23/88/22
f 23/89/23 27/90/23 25/91/23 21/92/23
f 22/93/24 26/94/24 28/95/24 24/96/24
f 25/97/25 29/98/25 30/99/25 26/100/25
f 28/101/26 32/102/26 31/103/26 27/104/26
f 27/105/27 31/106/27 29/107/27 25/108/27
f 26/109/28 30/110/28 32/111/28 28/112/28
f 29/113/29 17/114/29 18/115/29 30/116/29
f 32/117/30 20/118/30 19/119/30 31/120/30
f 31/121/31 19/122/31 17/123/31 29/124/31
f 30/125/32 18/126/32 20/127/32 32/128/32
o B1_Segment3
v -0.24375000000000002 1.0625 0.13124999999999998
v -0.24375000000000002 1.0625 0.125
v -0.24375000000000002 1 0.13124999999999998
v -0.24375000000000002 1 0.125
v -0.50625 1.0625 0.125
v -0.50625 1.0625 0.13124999999999998
v -0.50625 1 0.125
v -0.50625 1 0.13124999999999998
vt 0.1875 1
vt 0.3125 1
vt 0.3125 0.96875
vt 0.1875 0.96875
vt 0.1875 0.9375
vt 0.21875 0.9375
vt 0.21875 0.90625
vt 0.1875 0.90625
vt 0.1875 0.96875
vt 0.3125 0.96875
vt 0.3125 0.9375
vt 0.1875 0.9375
vt 0.1875 0.90625
vt 0.21875 0.90625
vt 0.21875 0.875
vt 0.1875 0.875
vt 0.3125 1
vt 0.4375 1
vt 0.4375 0.96875
vt 0.3125 0.96875
vt 0.3125 0.96875
vt 0.4375 0.96875
vt 0.4375 0.9375
vt 0.3125 0.9375
vn 0 0 -1
vn 1 0 0
vn 0 0 1
vn -1 0 0
vn 0 1 0
vn 0 -1 0
usemtl m_4
f 36/132/33 39/131/33 37/130/33 34/129/33
f 35/136/34 36/135/34 34/134/34 33/133/34
f 40/140/35 35/139/35 33/138/35 38/137/35
f 39/144/36 40/143/36 38/142/36 37/141/36
f 38/148/37 33/147/37 34/146/37 37/145/37
f 39/152/38 36/151/38 35/150/38 40/149/38
o B1_Segment1
v -0.24375000000000002 1.0625 -0.1250000000000001
v -0.24375000000000002 1.0625 -0.1312500000000001
v -0.24375000000000002 1 -0.1250000000000001
v -0.24375000000000002 1 -0.1312500000000001
v -0.50625 1.0625 -0.1312500000000001
v -0.50625 1.0625 -0.1250000000000001
v -0.50625 1 -0.1312500000000001
v -0.50625 1 -0.1250000000000001
vt 0.1875 1
vt 0.3125 1
vt 0.3125 0.96875
vt 0.1875 0.96875
vt 0.1875 0.90625
vt 0.21875 0.90625
vt 0.21875 0.875
vt 0.1875 0.875
vt 0.1875 0.96875
vt 0.3125 0.96875
vt 0.3125 0.9375
vt 0.1875 0.9375
vt 0.1875 0.9375
vt 0.21875 0.9375
vt 0.21875 0.90625
vt 0.1875 0.90625
vt 0.3125 1
vt 0.4375 1
vt 0.4375 0.96875
vt 0.3125 0.96875
vt 0.3125 0.96875
vt 0.4375 0.96875
vt 0.4375 0.9375
vt 0.3125 0.9375
vn 0 0 -1
vn 1 0 0
vn 0 0 1
vn -1 0 0
vn 0 1 0
vn 0 -1 0
usemtl m_4
f 44/156/39 47/155/39 45/154/39 42/153/39
f 43/160/40 44/159/40 42/158/40 41/157/40
f 48/164/41 43/163/41 41/162/41 46/161/41
f 47/168/42 48/167/42 46/166/42 45/165/42
f 46/172/43 41/171/43 42/170/43 45/169/43
f 47/176/44 44/175/44 43/174/44 48/173/44
o B1_Segment2
v -0.2437500000000008 1.0625 0.12499999999999992
v -0.2437500000000008 1.0625 -0.12500000000000006
v -0.2437500000000008 1 0.12499999999999992
v -0.2437500000000008 1 -0.12500000000000006
v -0.250000000000001 1.0625 -0.12500000000000006
v -0.250000000000001 1.0625 0.12499999999999992
v -0.250000000000001 1 -0.12500000000000006
v -0.250000000000001 1 0.12499999999999992
vt 0.1875 1
vt 0.3125 1
vt 0.3125 0.96875
vt 0.1875 0.96875
vt 0.1875 0.96875
vt 0.3125 0.96875
vt 0.3125 0.9375
vt 0.1875 0.9375
vt 0.3125 1
vt 0.34375 1
vt 0.34375 0.875
vt 0.3125 0.875
vt 0.34375 1
vt 0.375 1
vt 0.375 0.875
vt 0.34375 0.875
vn 1 0 0
vn -1 0 0
vn 0 1 0
vn 0 -1 0
usemtl m_4
f 51/180/45 52/179/45 50/178/45 49/177/45
f 55/184/46 56/183/46 54/182/46 53/181/46
f 54/188/47 49/187/47 50/186/47 53/185/47
f 55/192/48 52/191/48 51/190/48 56/189/48
o B2_Segment1
v -0.24375000000000002 0.875 -0.1250000000000001
v -0.24375000000000002 0.875 -0.1312500000000001
v -0.24375000000000002 0.8125 -0.1250000000000001
v -0.24375000000000002 0.8125 -0.1312500000000001
v -0.50625 0.875 -0.1312500000000001
v -0.50625 0.875 -0.1250000000000001
v -0.50625 0.8125 -0.1312500000000001
v -0.50625 0.8125 -0.1250000000000001
vt 0.1875 1
vt 0.3125 1
vt 0.3125 0.96875
vt 0.1875 0.96875
vt 0.1875 0.90625
vt 0.21875 0.90625
vt 0.21875 0.875
vt 0.1875 0.875
vt 0.1875 0.96875
vt 0.3125 0.96875
vt 0.3125 0.9375
vt 0.1875 0.9375
vt 0.1875 0.9375
vt 0.21875 0.9375
vt 0.21875 0.90625
vt 0.1875 0.90625
vt 0.3125 1
vt 0.4375 1
vt 0.4375 0.96875
vt 0.3125 0.96875
vt 0.3125 0.96875
vt 0.4375 0.96875
vt 0.4375 0.9375
vt 0.3125 0.9375
vn 0 0 -1
vn 1 0 0
vn 0 0 1
vn -1 0 0
vn 0 1 0
vn 0 -1 0
usemtl m_4
f 60/196/49 63/195/49 61/194/49 58/193/49
f 59/200/50 60/199/50 58/198/50 57/197/50
f 64/204/51 59/203/51 57/202/51 62/201/51
f 63/208/52 64/207/52 62/206/52 61/205/52
f 62/212/53 57/211/53 58/210/53 61/209/53
f 63/216/54 60/215/54 59/214/54 64/213/54
o B2_Segment2
v -0.2437500000000008 0.875 0.12499999999999992
v -0.2437500000000008 0.875 -0.12500000000000006
v -0.2437500000000008 0.8125 0.12499999999999992
v -0.2437500000000008 0.8125 -0.12500000000000006
v -0.250000000000001 0.875 -0.12500000000000006
v -0.250000000000001 0.875 0.12499999999999992
v -0.250000000000001 0.8125 -0.12500000000000006
v -0.250000000000001 0.8125 0.12499999999999992
vt 0.1875 1
vt 0.3125 1
vt 0.3125 0.96875
vt 0.1875 0.96875
vt 0.1875 0.96875
vt 0.3125 0.96875
vt 0.3125 0.9375
vt 0.1875 0.9375
vt 0.3125 1
vt 0.34375 1
vt 0.34375 0.875
vt 0.3125 0.875
vt 0.34375 1
vt 0.375 1
vt 0.375 0.875
vt 0.34375 0.875
vn 1 0 0
vn -1 0 0
vn 0 1 0
vn 0 -1 0
usemtl m_4
f 67/220/55 68/219/55 66/218/55 65/217/55
f 71/224/56 72/223/56 70/222/56 69/221/56
f 70/228/57 65/227/57 66/226/57 69/225/57
f 71/232/58 68/231/58 67/230/58 72/229/58
o B2_Segment3
v -0.24375000000000002 0.875 0.13124999999999998
v -0.24375000000000002 0.875 0.125
v -0.24375000000000002 0.8125 0.13124999999999998
v -0.24375000000000002 0.8125 0.125
v -0.50625 0.875 0.125
v -0.50625 0.875 0.13124999999999998
v -0.50625 0.8125 0.125
v -0.50625 0.8125 0.13124999999999998
vt 0.1875 1
vt 0.3125 1
vt 0.3125 0.96875
vt 0.1875 0.96875
vt 0.1875 0.9375
vt 0.21875 0.9375
vt 0.21875 0.90625
vt 0.1875 0.90625
vt 0.1875 0.96875
vt 0.3125 0.96875
vt 0.3125 0.9375
vt 0.1875 0.9375
vt 0.1875 0.90625
vt 0.21875 0.90625
vt 0.21875 0.875
vt 0.1875 0.875
vt 0.3125 1
vt 0.4375 1
vt 0.4375 0.96875
vt 0.3125 0.96875
vt 0.3125 0.96875
vt 0.4375 0.96875
vt 0.4375 0.9375
vt 0.3125 0.9375
vn 0 0 -1
vn 1 0 0
vn 0 0 1
vn -1 0 0
vn 0 1 0
vn 0 -1 0
usemtl m_4
f 76/236/59 79/235/59 77/234/59 74/233/59
f 75/240/60 76/239/60 74/238/60 73/237/60
f 80/244/61 75/243/61 73/242/61 78/241/61
f 79/248/62 80/247/62 78/246/62 77/245/62
f 78/252/63 73/251/63 74/250/63 77/249/63
f 79/256/64 76/255/64 75/254/64 80/253/64
o D_Frame1
v -0.4999999999999999 0.7812499999999996 0.125
v -0.4999999999999999 0.7812499999999996 -0.125
v -0.4999999999999999 0.75 0.125
v -0.4999999999999999 0.75 -0.125
v -0.53125 0.7812499999999996 -0.125
v -0.53125 0.7812499999999996 0.125
v -0.53125 0.75 -0.125
v -0.53125 0.75 0.125
vt 0.46875 0.375
vt 0.5 0.375
vt 0.5 0.34375
vt 0.46875 0.34375
vt 0.5 0.03125
vt 0.75 0.03125
vt 0.75 0
vt 0.5 0
vt 0.46875 0.03125
vt 0.5 0.03125
vt 0.5 0
vt 0.46875 0
vt 0.75 0.03125
vt 1 0.03125
vt 1 0
vt 0.75 0
vt 0.46875 0
vt 0.4375 0
vt 0.4375 0.1875
vt 0.46875 0.1875
vt 0.46875 0.1875
vt 0.4375 0.1875
vt 0.4375 0
vt 0.46875 0
vn 0 0 -1
vn 1 0 0
vn 0 0 1
vn -1 0 0
vn 0 1 0
vn 0 -1 0
usemtl m_4
f 84/260/65 87/259/65 85/258/65 82/257/65
f 83/264/66 84/263/66 82/262/66 81/261/66
f 88/268/67 83/267/67 81/266/67 86/265/67
f 87/272/68 88/271/68 86/270/68 85/269/68
f 86/276/69 81/275/69 82/274/69 85/273/69
f 87/280/70 84/279/70 83/278/70 88/277/70
o D_Frame2
v -0.4999999999999999 1.125 0.125
v -0.4999999999999999 1.125 -0.125
v -0.4999999999999999 1.09375 0.125
v -0.4999999999999999 1.09375 -0.125
v -0.53125 1.125 -0.125
v -0.53125 1.125 0.125
v -0.53125 1.09375 -0.125
v -0.53125 1.09375 0.125
vt 0.46875 0.375
vt 0.5 0.375
vt 0.5 0.34375
vt 0.46875 0.34375
vt 0.5 0.375
vt 0.75 0.375
vt 0.75 0.34375
vt 0.5 0.34375
vt 0.46875 0.03125
vt 0.5 0.03125
vt 0.5 0
vt 0.46875 0
vt 0.75 0.375
vt 1 0.375
vt 1 0.34375
vt 0.75 0.34375
vt 0.46875 0
vt 0.4375 0
vt 0.4375 0.1875
vt 0.46875 0.1875
vt 0.46875 0.1875
vt 0.4375 0.1875
vt 0.4375 0
vt 0.46875 0
vn 0 0 -1
vn 1 0 0
vn 0 0 1
vn -1 0 0
vn 0 1 0
vn 0 -1 0
usemtl m_4
f 92/284/71 95/283/71 93/282/71 90/281/71
f 91/288/72 92/287/72 90/286/72 89/285/72
f 96/292/73 91/291/73 89/290/73 94/289/73
f 95/296/74 96/295/74 94/294/74 93/293/74
f 94/300/75 89/299/75 90/298/75 93/297/75
f 95/304/76 92/303/76 91/302/76 96/301/76
o D_Frame3
v -0.4999999999999999 1.09375 -0.09375000000000003
v -0.4999999999999999 1.09375 -0.125
v -0.4999999999999999 0.78125 -0.09375000000000003
v -0.4999999999999999 0.78125 -0.125
v -0.53125 1.09375 -0.125
v -0.53125 1.09375 -0.09375000000000003
v -0.53125 0.78125 -0.125
v -0.53125 0.78125 -0.09375000000000003
vt 0.46875 0.34375
vt 0.5 0.34375
vt 0.5 0.03125
vt 0.46875 0.03125
vt 0.71875 0.34375
vt 0.75 0.34375
vt 0.75 0.03125
vt 0.71875 0.03125
vt 0.46875 0.34375
vt 0.5 0.34375
vt 0.5 0.03125
vt 0.46875 0.03125
vt 0.75 0.34375
vt 0.78125 0.34375
vt 0.78125 0.03125
vt 0.75 0.03125
vn 0 0 -1
vn 1 0 0
vn 0 0 1
vn -1 0 0
usemtl m_4
f 100/308/77 103/307/77 101/306/77 98/305/77
f 99/312/78 100/311/78 98/310/78 97/309/78
f 104/316/79 99/315/79 97/314/79 102/313/79
f 103/320/80 104/319/80 102/318/80 101/317/80
o D_Frame4
v -0.4999999999999999 1.09375 0.12499999999999997
v -0.4999999999999999 1.09375 0.09375
v -0.4999999999999999 0.78125 0.12499999999999997
v -0.4999999999999999 0.78125 0.09375
v -0.53125 1.09375 0.09375
v -0.53125 1.09375 0.12499999999999997
v -0.53125 0.78125 0.09375
v -0.53125 0.78125 0.12499999999999997
vt 0.46875 0.34375
vt 0.5 0.34375
vt 0.5 0.03125
vt 0.46875 0.03125
vt 0.5 0.34375
vt 0.53125 0.34375
vt 0.53125 0.03125
vt 0.5 0.03125
vt 0.46875 0.34375
vt 0.5 0.34375
vt 0.5 0.03125
vt 0.46875 0.03125
vt 0.96875 0.34375
vt 1 0.34375
vt 1 0.03125
vt 0.96875 0.03125
vn 0 0 -1
vn 1 0 0
vn 0 0 1
vn -1 0 0
usemtl m_4
f 108/324/81 111/323/81 109/322/81 106/321/81
f 107/328/82 108/327/82 106/326/82 105/325/82
f 112/332/83 107/331/83 105/330/83 110/329/83
f 111/336/84 112/335/84 110/334/84 109/333/84
o D_Logo
v -0.5253124999999998 0.875 -0.09374999999999997
v -0.5253124999999998 1 -0.09375000000000003
v -0.5253124999999998 0.875 -0.12499999999999997
v -0.5253124999999998 1 -0.12500000000000003
v -0.5315625 1 -0.09375000000000003
v -0.5315625 0.875 -0.09374999999999997
v -0.5315625 1 -0.12500000000000003
v -0.5315625 0.875 -0.12499999999999997
vt 0 1
vt 1 1
vt 1 0.75
vt 0 0.75
vn -1 0 0
usemtl m_6
f 119/340/85 120/339/85 118/338/85 117/337/85
o D_Display
v -0.4999999999999999 1.09375 0.09375
v -0.4999999999999999 1.09375 -0.09375
v -0.4999999999999999 0.78125 0.09375
v -0.4999999999999999 0.78125 -0.09375
v -0.525 1.09375 -0.09375
v -0.525 1.09375 0.09375
v -0.525 0.78125 -0.09375
v -0.525 0.78125 0.09375
vt 0.53125 0.34375
vt 0.71875 0.34375
vt 0.71875 0.03125
vt 0.53125 0.03125
vt 0.78125 0.34375
vt 0.96875 0.34375
vt 0.96875 0.03125
vt 0.78125 0.03125
vn 1 0 0
vn -1 0 0
usemtl m_4
f 123/344/86 124/343/86 122/342/86 121/341/86
f 127/348/87 128/347/87 126/346/87 125/345/87
o D_Screen
v -0.5003124999999998 0.78125 0.09375000000000007
v -0.5003124999999998 1.09375 0.09374999999999993
v -0.5003124999999998 0.78125 -0.09374999999999993
v -0.5003124999999998 1.09375 -0.09375000000000007
v -0.5253125 1.09375 0.09374999999999993
v -0.5253125 0.78125 0.09375000000000007
v -0.5253125 1.09375 -0.09375000000000007
v -0.5253125 0.78125 -0.09374999999999993
vt 0 1
vt 0.625 1
vt 0.625 0.625
vt 0 0.625
vn -1 0 0
usemtl m_5
f 135/352/88 136/351/88 134/350/88 133/349/88
o D_LED
v -0.516875 1.09375 0.1171875
v -0.516875 1.09375 0.1015625
v -0.516875 1.078125 0.1171875
v -0.516875 1.078125 0.1015625
v -0.5325 1.09375 0.1015625
v -0.5325 1.09375 0.1171875
v -0.5325 1.078125 0.1015625
v -0.5325 1.078125 0.1171875
vt 0.9375 1
vt 1 1
vt 1 0.9375
vt 0.9375 0.9375
vt 0.9375 1
vt 1 1
vt 1 0.9375
vt 0.9375 0.9375
vt 0.9375 1
vt 1 1
vt 1 0.9375
vt 0.9375 0.9375
vt 0.9375 1
vt 1 1
vt 1 0.9375
vt 0.9375 0.9375
vt 0.9375 1
vt 1 1
vt 1 0.9375
vt 0.9375 0.9375
vn 0 0 -1
vn 0 0 1
vn -1 0 0
vn 0 1 0
vn 0 -1 0
usemtl m_4
f 140/356/89 143/355/89 141/354/89 138/353/89
f 144/360/90 139/359/90 137/358/90 142/357/90
f 143/364/91 144/363/91 142/362/91 141/361/91
f 142/368/92 137/367/92 138/366/92 141/365/92
f 143/372/93 140/371/93 139/370/93 144/369/93
o D_Antenna
v -0.49929296293904524 1.094264951251828 0.1375
v -0.49929296293904524 1.094264951251828 0.125
v -0.5949638210303176 0.8632950681240066 0.1375
v -0.5949638210303176 0.8632950681240066 0.125
v -0.5223899512518274 1.1038320370609553 0.125
v -0.5223899512518274 1.1038320370609553 0.1375
v -0.6180608093430998 0.8728621539331338 0.125
v -0.6180608093430998 0.8728621539331338 0.1375
vt 0 0.5625
vt 0.09375 0.5625
vt 0.09375 0
vt 0 0
vt 0 0.5625
vt 0.03125 0.5625
vt 0.03125 0
vt 0 0
vt 0 0.5625
vt 0.09375 0.5625
vt 0.09375 0
vt 0 0
vt 0.0625 0.5625
vt 0.09375 0.5625
vt 0.09375 0
vt 0.0625 0
vt 0 0.5625
vt 0.09375 0.5625
vt 0.09375 0.53125
vt 0 0.53125
vt 0 0.03125
vt 0.09375 0.03125
vt 0.09375 0
vt 0 0
vn 0 0 -1
vn 0.9238795325112867 -0.3826834323650897 0
vn 0 0 1
vn -0.9238795325112867 0.3826834323650897 0
vn 0.3826834323650897 0.9238795325112867 0
vn -0.3826834323650897 -0.9238795325112867 0
usemtl m_4
f 148/376/94 151/375/94 149/374/94 146/373/94
f 147/380/95 148/379/95 146/378/95 145/377/95
f 152/384/96 147/383/96 145/382/96 150/381/96
f 151/388/97 152/387/97 150/386/97 149/385/97
f 150/392/98 145/391/98 146/390/98 149/389/98
f 151/396/99 148/395/99 147/394/99 152/393/99